<svg xmlns="http://www.w3.org/2000/svg" viewBox="0 0 1122 209" width="1122" height="209">
  <path d="M 14.0 202.0 L 1.0 202.0 L 0.0 208.0 L 13.0 207.0 Z M 31.0 199.0 L 22.0 200.0 L 21.0 206.0 L 31.0 205.0 Z M 63.0 194.0 L 42.0 196.0 L 42.0 203.0 L 63.0 201.0 Z M 45.0 173.0 L 34.0 175.0 L 33.0 182.0 L 45.0 180.0 Z M 69.0 169.0 L 58.0 171.0 L 58.0 177.0 L 68.0 176.0 Z M 259.0 116.0 L 251.0 108.0 L 226.0 97.0 L 145.0 77.0 L 182.0 93.0 L 200.0 103.0 L 210.0 113.0 L 210.0 123.0 L 204.0 129.0 L 190.0 136.0 L 167.0 144.0 L 81.0 165.0 L 81.0 173.0 L 166.0 159.0 L 229.0 145.0 L 233.0 146.0 L 216.0 156.0 L 195.0 163.0 L 149.0 175.0 L 78.0 190.0 L 77.0 199.0 L 178.0 191.0 L 213.0 184.0 L 227.0 175.0 L 234.0 167.0 L 241.0 143.0 L 249.0 138.0 L 259.0 126.0 Z M 226.0 108.0 L 230.0 110.0 L 237.0 118.0 L 237.0 129.0 L 234.0 118.0 L 225.0 109.0 Z M 236.0 74.0 L 220.0 74.0 L 218.0 75.0 L 217.0 79.0 L 235.0 79.0 Z M 1032.0 137.0 L 1049.0 137.0 L 1056.0 124.0 L 1097.0 124.0 L 1104.0 137.0 L 1121.0 136.0 L 1086.0 72.0 L 1069.0 71.0 Z M 1077.0 86.0 L 1090.0 111.0 L 1064.0 112.0 L 1063.0 111.0 Z M 955.0 71.0 L 955.0 137.0 L 969.0 137.0 L 970.0 115.0 L 992.0 115.0 L 1010.0 137.0 L 1028.0 137.0 L 1009.0 115.0 L 1010.0 112.0 L 1018.0 109.0 L 1022.0 105.0 L 1025.0 98.0 L 1024.0 84.0 L 1019.0 77.0 L 1012.0 73.0 L 1003.0 71.0 Z M 969.0 84.0 L 1004.0 84.0 L 1009.0 88.0 L 1010.0 95.0 L 1006.0 101.0 L 1000.0 103.0 L 970.0 103.0 Z M 874.0 71.0 L 874.0 83.0 L 901.0 84.0 L 901.0 137.0 L 916.0 137.0 L 916.0 85.0 L 918.0 83.0 L 943.0 83.0 L 943.0 71.0 Z M 796.0 71.0 L 796.0 137.0 L 811.0 137.0 L 812.0 115.0 L 834.0 115.0 L 852.0 137.0 L 870.0 137.0 L 850.0 114.0 L 861.0 108.0 L 866.0 100.0 L 866.0 85.0 L 859.0 76.0 L 846.0 71.0 Z M 811.0 84.0 L 846.0 84.0 L 851.0 89.0 L 851.0 97.0 L 842.0 103.0 L 812.0 103.0 Z M 698.0 137.0 L 715.0 137.0 L 722.0 124.0 L 763.0 124.0 L 770.0 137.0 L 787.0 137.0 L 751.0 71.0 L 734.0 72.0 Z M 743.0 86.0 L 756.0 111.0 L 730.0 112.0 L 729.0 110.0 Z M 614.0 71.0 L 614.0 137.0 L 629.0 137.0 L 630.0 93.0 L 675.0 137.0 L 689.0 137.0 L 689.0 71.0 L 675.0 71.0 L 673.0 115.0 L 629.0 71.0 Z M 521.0 85.0 L 516.0 98.0 L 518.0 118.0 L 528.0 131.0 L 539.0 137.0 L 547.0 139.0 L 570.0 139.0 L 578.0 137.0 L 588.0 132.0 L 596.0 124.0 L 599.0 118.0 L 601.0 109.0 L 599.0 91.0 L 590.0 79.0 L 580.0 73.0 L 569.0 70.0 L 542.0 71.0 L 529.0 77.0 Z M 535.0 91.0 L 548.0 83.0 L 563.0 82.0 L 576.0 86.0 L 585.0 97.0 L 586.0 108.0 L 584.0 115.0 L 578.0 122.0 L 569.0 126.0 L 556.0 127.0 L 545.0 125.0 L 539.0 122.0 L 532.0 112.0 L 531.0 101.0 Z M 436.0 81.0 L 434.0 94.0 L 436.0 100.0 L 440.0 104.0 L 455.0 109.0 L 486.0 112.0 L 490.0 115.0 L 491.0 119.0 L 483.0 126.0 L 462.0 127.0 L 450.0 124.0 L 440.0 118.0 L 431.0 127.0 L 434.0 130.0 L 445.0 136.0 L 457.0 139.0 L 483.0 139.0 L 491.0 137.0 L 503.0 129.0 L 506.0 122.0 L 505.0 110.0 L 500.0 104.0 L 486.0 99.0 L 458.0 97.0 L 449.0 92.0 L 449.0 88.0 L 452.0 85.0 L 462.0 82.0 L 481.0 83.0 L 496.0 91.0 L 504.0 82.0 L 498.0 76.0 L 481.0 70.0 L 458.0 70.0 L 444.0 74.0 Z M 242.0 79.0 L 257.0 80.0 L 260.0 78.0 L 264.0 70.0 L 247.0 69.0 Z M 408.0 13.0 L 406.0 13.0 L 325.0 132.0 L 286.0 197.0 L 288.0 199.0 L 335.0 130.0 Z M 308.0 0.0 L 142.0 5.0 L 113.0 10.0 L 98.0 16.0 L 89.0 24.0 L 76.0 56.0 L 68.0 63.0 L 64.0 74.0 L 66.0 79.0 L 73.0 86.0 L 88.0 93.0 L 170.0 116.0 L 148.0 106.0 L 123.0 91.0 L 115.0 82.0 L 114.0 74.0 L 116.0 70.0 L 123.0 64.0 L 153.0 51.0 L 285.0 10.0 L 151.0 37.0 L 87.0 54.0 L 84.0 53.0 L 85.0 49.0 L 111.0 38.0 L 169.0 23.0 L 269.0 5.0 Z M 91.0 77.0 L 92.0 76.0 L 98.0 82.0 L 96.0 83.0 Z" fill="#ffffff" fill-rule="evenodd"/>
</svg>