<svg xmlns="http://www.w3.org/2000/svg" viewBox="0 0 320 210" width="320" height="210" aria-hidden="true">
  <path d="M 14.0 202.0 L 1.0 202.0 L 0.0 208.0 L 13.0 207.0 Z M 31.0 199.0 L 22.0 200.0 L 21.0 206.0 L 31.0 205.0 Z M 63.0 194.0 L 42.0 196.0 L 42.0 203.0 L 63.0 201.0 Z M 45.0 173.0 L 34.0 175.0 L 33.0 182.0 L 45.0 180.0 Z M 69.0 169.0 L 58.0 171.0 L 58.0 177.0 L 68.0 176.0 Z M 259.0 116.0 L 251.0 108.0 L 226.0 97.0 L 145.0 77.0 L 182.0 93.0 L 200.0 103.0 L 210.0 113.0 L 210.0 123.0 L 204.0 129.0 L 190.0 136.0 L 167.0 144.0 L 81.0 165.0 L 81.0 173.0 L 166.0 159.0 L 229.0 145.0 L 233.0 146.0 L 216.0 156.0 L 195.0 163.0 L 149.0 175.0 L 78.0 190.0 L 77.0 199.0 L 178.0 191.0 L 213.0 184.0 L 227.0 175.0 L 234.0 167.0 L 241.0 143.0 L 249.0 138.0 L 259.0 126.0 Z M 226.0 108.0 L 230.0 110.0 L 237.0 118.0 L 237.0 129.0 L 234.0 118.0 L 225.0 109.0 Z M 236.0 74.0 L 220.0 74.0 L 218.0 75.0 L 217.0 79.0 L 235.0 79.0 Z M 242.0 79.0 L 257.0 80.0 L 260.0 78.0 L 264.0 70.0 L 247.0 69.0 Z M 308.0 0.0 L 142.0 5.0 L 113.0 10.0 L 98.0 16.0 L 89.0 24.0 L 76.0 56.0 L 68.0 63.0 L 64.0 74.0 L 66.0 79.0 L 73.0 86.0 L 88.0 93.0 L 170.0 116.0 L 148.0 106.0 L 123.0 91.0 L 115.0 82.0 L 114.0 74.0 L 116.0 70.0 L 123.0 64.0 L 153.0 51.0 L 285.0 10.0 L 151.0 37.0 L 87.0 54.0 L 84.0 53.0 L 85.0 49.0 L 111.0 38.0 L 169.0 23.0 L 269.0 5.0 Z M 91.0 77.0 L 92.0 76.0 L 98.0 82.0 L 96.0 83.0 Z"
    fill="currentColor"
    fill-rule="evenodd"
  />
</svg>
