<svg version="1.1" id="Layer_1" xmlns="http://www.w3.org/2000/svg" xmlns:xlink="http://www.w3.org/1999/xlink" x="0px" y="0px"
	 width="100%" viewBox="0 0 1082 335" enable-background="new 0 0 1082 335" xml:space="preserve">
<path fill="#FFFFFF" opacity="1.000000" stroke="none" 
	d="
M699.000000,336.000000 
	C466.040985,336.000000 233.581985,336.000000 1.061488,336.000000 
	C1.061488,224.394043 1.061488,112.788040 1.061488,1.091020 
	C361.542389,1.091020 722.084778,1.091020 1082.813599,1.091020 
	C1082.813599,112.666420 1082.813599,224.333176 1082.813599,336.000000 
	C955.121338,336.000000 827.310669,336.000000 699.000000,336.000000 
M93.998848,220.735046 
	C94.777267,221.126221 95.555695,221.517380 96.334122,221.908539 
	C96.251137,221.285004 96.168152,220.661453 96.928947,219.959167 
	C137.767792,213.355438 178.449554,205.943634 218.863342,196.055161 
	C217.925507,197.510483 217.416840,199.323715 216.311371,199.827576 
	C212.668564,201.487946 208.889893,202.981903 205.020218,203.990433 
	C186.879501,208.718323 168.744217,213.487900 150.502548,217.800827 
	C136.024750,221.223877 121.363693,223.865891 106.851372,227.152206 
	C101.792633,228.297760 96.935402,230.333191 91.142197,232.039963 
	C88.609001,231.722778 86.014214,230.893311 83.554718,231.189041 
	C77.350533,231.935013 71.207298,233.187744 64.330856,234.187378 
	C63.237133,234.420013 62.143406,234.652649 60.644119,234.243729 
	C55.089447,235.234009 49.534775,236.224304 43.096428,237.034515 
	C40.660599,237.080215 38.196896,236.913513 35.796417,237.228577 
	C33.145504,237.576477 30.727430,238.538010 30.367241,242.312576 
	C30.922707,243.430634 31.478172,244.548691 32.891880,245.843460 
	C36.595181,245.451508 40.298481,245.059555 44.479584,244.844833 
	C44.556335,244.563339 44.633091,244.281845 44.901741,243.531723 
	C44.939503,243.367203 44.977268,243.202682 45.675762,242.773331 
	C46.325813,241.943405 46.975864,241.113480 47.242729,240.772766 
	C48.264351,242.130432 49.054825,244.334824 50.393135,244.742996 
	C54.401226,245.965424 61.669083,242.941605 63.514866,240.008621 
	C63.514866,240.008621 63.955509,240.015640 64.078461,240.816101 
	C65.514427,241.523163 66.994743,242.907211 68.378448,242.816574 
	C73.537666,242.478546 78.691078,241.020828 83.795944,241.228714 
	C87.509071,241.379929 87.341019,238.880661 88.069038,237.108185 
	C88.426735,236.237305 87.236565,234.730652 86.552246,233.027237 
	C88.744553,233.027237 90.367340,233.027237 92.062218,233.514999 
	C92.062218,233.514999 92.023331,234.006531 91.370834,234.261459 
	C91.280754,236.269348 91.190666,238.277237 91.080696,240.728424 
	C92.492165,240.728424 94.750587,240.728424 97.663437,240.891281 
	C98.105881,240.834961 98.548325,240.778625 99.668129,240.907318 
	C100.449043,240.614212 101.229965,240.321091 102.906784,239.952667 
	C104.906509,239.932556 106.921921,240.067474 108.903412,239.867111 
	C121.460571,238.597443 134.005173,237.202881 146.564194,235.952866 
	C154.413376,235.171616 162.327072,234.903854 170.128937,233.812988 
	C182.224335,232.121811 194.270752,230.047241 206.298355,227.912247 
	C222.375549,225.058395 235.140488,217.930130 240.010635,200.953506 
	C242.074020,193.760971 245.664825,187.840622 251.877884,183.054947 
	C254.962677,180.678833 256.795715,175.831223 257.778717,171.759766 
	C259.500916,164.626541 253.542496,161.324188 248.852905,158.115967 
	C234.270004,148.139511 217.468994,143.825150 200.515701,140.045029 
	C188.504898,137.366943 176.458939,134.838547 164.489014,131.989761 
	C160.336166,131.001404 155.698624,130.084335 151.217239,130.853470 
	C161.778900,135.184753 171.447495,138.706406 180.719589,143.070480 
	C191.056427,147.935730 202.242615,151.672211 209.348984,161.663956 
	C211.703644,164.974670 212.020401,169.811111 209.101349,172.340744 
	C205.806198,175.196304 202.338516,178.024109 198.522888,180.078293 
	C181.215393,189.395981 162.024734,193.119370 143.257446,197.993378 
	C126.897789,202.242081 110.402985,205.970444 93.262985,209.989029 
	C92.181946,210.310471 91.100914,210.631912 89.660805,210.276917 
	C85.439407,211.270462 81.218010,212.264023 76.500320,213.134857 
	C76.419510,213.420700 76.338692,213.706528 76.068207,214.811890 
	C76.047249,216.212845 76.026299,217.613785 75.261169,219.044418 
	C72.521645,220.040497 71.812759,217.429214 72.159828,216.297440 
	C73.334274,212.467575 70.959045,212.011597 68.301895,211.490204 
	C68.106895,212.613815 67.902359,213.792435 67.709824,214.901855 
	C55.262928,215.270386 53.948940,216.780853 57.663750,225.451080 
	C61.966335,225.451080 66.089783,225.451080 70.838448,225.451080 
	C72.506935,224.270844 72.047829,219.957794 76.074066,220.656693 
	C76.049919,221.105865 76.025772,221.555038 75.473007,222.100906 
	C75.654793,222.316254 75.836578,222.531601 76.489288,222.911270 
	C76.489288,222.911270 76.978477,223.008469 77.097755,223.529541 
	C77.418221,223.361069 77.738678,223.192612 78.897545,222.972733 
	C82.927094,222.334488 86.956642,221.696228 91.145126,221.622131 
	C92.085228,221.099808 93.025330,220.577484 94.000473,220.002670 
	C94.000473,220.002670 93.946609,220.035492 93.998848,220.735046 
M97.657982,108.748985 
	C97.491562,108.636559 97.325150,108.524132 97.611008,107.857597 
	C102.743149,105.209618 107.613937,101.665504 113.055504,100.078461 
	C130.739304,94.920959 148.521484,89.996315 166.473984,85.892845 
	C186.141418,81.397377 205.983765,77.594902 225.854233,74.080338 
	C245.687790,70.572296 265.653534,67.813446 285.549103,64.649414 
	C286.727051,64.462082 287.796387,63.591747 288.916260,63.039249 
	C287.074280,62.135300 285.487579,62.114948 283.901550,62.138382 
	C262.661469,62.452244 241.421722,62.788651 220.181335,63.080158 
	C214.197433,63.162281 208.205048,62.938889 202.228348,63.166222 
	C188.209900,63.699444 174.175186,64.109512 160.191666,65.162025 
	C148.613861,66.033470 136.976410,67.108856 125.595047,69.291451 
	C115.756447,71.178192 106.291298,75.319298 101.287682,84.783257 
	C97.219322,92.478241 94.562988,100.910713 91.069183,108.924026 
	C90.015755,111.340157 88.714020,114.025887 86.737579,115.594971 
	C79.042091,121.704376 78.674156,129.654846 86.276283,135.976303 
	C96.409851,144.402740 108.962952,147.955185 121.076874,151.655243 
	C140.341537,157.539383 160.087784,161.846848 179.630341,166.821198 
	C179.878952,166.496887 180.127563,166.172577 180.376175,165.848251 
	C179.273361,164.920502 178.298294,163.741226 177.047012,163.105804 
	C168.961288,158.999741 160.627670,155.343887 152.746887,150.883896 
	C146.139023,147.144272 139.722610,142.901855 133.812714,138.147125 
	C129.337845,134.546936 129.250183,127.051796 133.732468,123.941338 
	C140.297195,119.385773 147.264008,115.026649 154.666046,112.138237 
	C171.499756,105.569405 188.694763,99.924133 205.758026,93.946617 
	C224.843399,87.260712 243.951172,80.638718 263.027710,73.927818 
	C264.337677,73.466995 265.468323,72.496468 267.800354,71.087532 
	C265.657867,71.087532 264.968994,70.969109 264.334595,71.105049 
	C252.114532,73.723541 239.903397,76.383804 227.685318,79.011604 
	C199.763351,85.016899 171.848282,91.054985 143.905426,96.961639 
	C139.292206,97.936798 134.552475,98.313400 129.827637,98.972694 
	C129.835144,98.804604 129.950714,99.894699 129.760483,99.950974 
	C119.231339,103.065506 108.676605,106.093559 97.657982,108.748985 
M896.996216,169.498199 
	C896.996216,174.924896 896.996216,180.351593 896.996216,185.627869 
	C902.706116,185.627869 907.773621,185.627869 913.364136,185.627869 
	C913.364136,178.200470 913.364136,171.099411 913.364136,163.139603 
	C919.117981,163.983856 924.894775,166.534744 929.194824,164.985764 
	C933.537292,163.421478 934.869751,165.118484 936.652405,167.311249 
	C940.887878,172.521271 944.650452,178.122330 948.996338,183.231735 
	C950.260193,184.717651 952.810730,185.706131 954.838745,185.831100 
	C960.482666,186.178894 966.241699,185.352783 971.809265,186.091110 
	C980.848633,187.289825 986.915405,184.807526 989.219910,175.387466 
	C989.869080,172.733948 991.819519,171.742081 994.808533,171.856384 
	C1001.963074,172.130005 1009.163269,172.340271 1016.292542,171.834991 
	C1023.908752,171.295212 1029.495483,172.993027 1032.207031,180.969864 
	C1032.890381,182.980362 1035.435547,185.457031 1037.393799,185.720230 
	C1042.412476,186.394760 1047.582153,185.945389 1053.171021,185.945389 
	C1041.401855,164.327515 1029.912476,143.223526 1018.379761,122.039871 
	C1013.149658,122.039871 1007.977234,121.857185 1002.833435,122.160141 
	C1001.436584,122.242409 999.455444,123.479515 998.882568,124.715172 
	C994.477295,134.217377 988.335449,142.747192 983.881592,152.238190 
	C980.040710,160.423050 975.378540,168.227036 970.962952,176.134323 
	C969.914673,178.011414 968.400574,179.628418 967.100220,181.365753 
	C961.712891,174.505035 956.712524,168.137146 951.579529,161.600403 
	C953.733215,160.587616 955.568604,159.908524 957.216370,158.917450 
	C963.906433,154.893631 967.592102,149.033035 966.910767,141.113083 
	C966.301086,134.026154 963.304810,127.756584 956.072510,125.810295 
	C948.606689,123.801132 940.782654,122.581818 933.057312,122.203773 
	C921.152222,121.621201 909.197632,122.050407 896.996216,122.050407 
	C896.996216,137.891403 896.996216,153.195023 896.996216,169.498199 
M771.500122,122.044937 
	C764.743225,122.044937 757.986328,122.044937 751.320923,122.044937 
	C751.320923,143.671997 751.320923,164.713943 751.320923,185.953186 
	C755.767212,185.953186 759.911255,185.863113 764.048950,185.985779 
	C766.679871,186.063797 768.069702,185.325409 768.003113,182.374069 
	C767.867981,176.391449 767.962830,170.403641 767.962830,163.950928 
	C773.465393,163.950928 778.785889,164.326950 784.023865,163.831543 
	C788.187683,163.437714 790.559631,165.504440 792.703308,168.299438 
	C796.453857,173.189468 799.961121,178.268692 803.791687,183.092941 
	C804.808533,184.373535 806.590088,185.732422 808.092346,185.819641 
	C813.649658,186.142288 819.237061,185.947983 826.504944,185.947983 
	C819.405151,176.982620 813.214355,169.165115 806.814331,161.083405 
	C808.064880,160.514145 808.626465,160.218109 809.216003,159.996201 
	C816.490234,157.258301 822.851501,148.612823 821.855408,141.993179 
	C820.106140,130.367249 813.732788,124.423637 802.213379,123.176880 
	C792.383240,122.112961 782.410034,122.371582 771.500122,122.044937 
M639.116516,122.786285 
	C639.116516,135.711868 639.116516,148.637436 639.116516,163.064850 
	C628.683350,152.165817 619.170959,142.283020 609.723267,132.338745 
	C604.051331,126.368706 598.907837,119.473793 588.993530,122.009041 
	C588.055481,122.248909 586.993591,122.130058 586.005432,122.025261 
	C582.905457,121.696510 581.949097,123.125931 581.992310,126.109184 
	C582.122375,135.101471 582.034607,144.096878 582.035889,153.091064 
	C582.037231,162.751480 582.109924,172.412506 582.022766,182.072113 
	C581.968445,188.094116 586.675842,186.203400 589.149658,185.723083 
	C592.458374,185.080627 598.364075,189.534210 598.841553,182.183029 
	C599.158569,177.302582 598.233032,172.354630 598.151550,167.432114 
	C598.017029,159.299973 598.115051,151.163986 598.115051,141.754044 
	C600.094055,144.146637 600.934631,145.311752 601.922668,146.334351 
	C612.415039,157.193802 623.248901,167.746201 633.306030,178.993591 
	C638.340637,184.624084 643.672424,186.752548 651.032715,186.125336 
	C655.007874,185.786606 656.078674,184.749863 656.039368,180.862137 
	C655.854553,162.542526 655.963440,144.219986 655.944458,125.898514 
	C655.943176,124.640671 655.753174,123.383026 655.650452,122.118645 
	C650.113770,122.118645 644.958130,122.118645 639.116516,122.786285 
M497.907318,129.698395 
	C497.760437,129.620148 497.620270,129.511658 497.463715,129.476791 
	C497.388733,129.460098 497.235748,129.561478 497.197601,129.645462 
	C496.475494,131.235825 496.125488,133.168274 494.997681,134.374939 
	C481.360077,148.965805 487.494110,176.346741 509.388214,183.173492 
	C518.421021,185.990005 527.345337,186.385056 536.641724,186.140717 
	C548.542053,185.827911 557.968140,181.197922 565.901123,172.608063 
	C574.406738,163.398254 574.861023,145.875854 566.728699,136.266251 
	C554.288269,121.565811 537.748718,119.674797 520.171631,121.478943 
	C512.036194,122.313972 504.848907,126.069069 497.907318,129.698395 
M460.061218,171.994202 
	C445.699219,174.396378 431.725067,173.786728 419.167145,165.501785 
	C416.471893,163.723618 415.076538,163.937500 413.493500,166.149475 
	C411.585175,168.815933 409.846527,171.603821 407.849060,174.618973 
	C410.502350,178.104385 416.291901,181.280701 422.815460,183.324158 
	C436.898132,187.735443 451.232452,187.756256 465.424408,184.592026 
	C473.038239,182.894440 479.868073,178.691589 481.847748,170.322159 
	C484.470398,159.234146 476.856384,152.628235 467.034393,150.202057 
	C455.872803,147.444962 444.350616,146.173691 433.059967,143.887253 
	C431.160095,143.502502 429.638611,141.249130 427.942291,139.859161 
	C429.587433,138.255020 430.998962,135.669678 432.917297,135.212860 
	C442.337891,132.969574 451.681519,134.287735 460.749298,137.343811 
	C464.670044,138.665192 468.394318,140.569550 471.968781,142.106323 
	C474.433990,139.177551 476.706787,136.667603 478.710571,133.958664 
	C479.191254,133.308823 479.156342,131.344437 478.717712,131.090210 
	C473.591766,128.119217 468.624939,124.068291 463.059509,122.854347 
	C455.193878,121.138687 446.847656,121.012764 438.733582,121.225861 
	C430.926788,121.430893 423.221863,122.968643 416.678650,128.042252 
	C412.063293,131.621017 407.939301,141.085663 410.453705,147.002380 
	C411.751465,150.056198 416.066467,152.750580 419.555145,153.770264 
	C428.523590,156.391586 437.822266,157.859818 446.929657,160.037018 
	C453.194916,161.534775 460.544464,160.303467 465.494354,167.291885 
	C463.928986,168.781143 462.384094,170.250931 460.061218,171.994202 
M668.521606,185.953430 
	C676.360291,187.628174 680.893555,184.120941 683.031555,176.762680 
	C683.297974,175.845596 683.693420,174.797974 684.373474,174.207703 
	C685.443909,173.278595 686.797729,172.067459 688.047546,172.048798 
	C699.195496,171.882553 710.347046,171.951981 721.487122,171.951981 
	C723.387329,175.707642 725.039917,179.415863 727.121521,182.865158 
	C727.925659,184.197632 729.651062,185.723724 731.046021,185.816376 
	C736.276978,186.163757 741.544922,185.955505 747.126709,185.955505 
	C746.848450,184.629471 746.864563,183.758652 746.498596,183.100098 
	C737.013916,166.030289 726.967651,149.244476 718.217651,131.807770 
	C714.492126,124.383591 710.597900,121.335678 702.093384,121.683746 
	C695.854858,121.939079 692.532166,123.913239 690.411499,129.204376 
	C690.231201,129.654434 690.092651,130.127930 689.860168,130.549393 
	C683.999634,141.171478 678.102783,151.773621 672.269226,162.410431 
	C668.096497,170.018875 664.006165,177.672455 659.528809,185.953644 
	C662.711609,185.953644 665.145996,185.953644 668.521606,185.953430 
M879.485352,135.975372 
	C883.248413,135.975372 887.011414,135.975372 890.629150,135.975372 
	C890.629150,130.977112 890.629150,126.583969 890.629150,122.372475 
	C868.922180,122.372475 847.545166,122.372475 826.394775,122.372475 
	C826.394775,127.104866 826.394775,131.501724 826.394775,136.072021 
	C834.021606,136.072021 841.286133,136.072021 848.949097,136.072021 
	C848.949097,152.746338 848.949097,169.236130 848.949097,185.655258 
	C854.649536,185.655258 859.717529,185.655258 865.178833,185.655258 
	C865.178833,168.967300 865.178833,152.576630 865.178833,135.975235 
	C869.883484,135.975235 874.189392,135.975235 879.485352,135.975372 
M354.434875,127.952797 
	C364.455444,109.691437 377.164795,92.902878 385.045563,73.469421 
	C382.894043,74.581184 363.311493,101.763893 362.565094,102.899712 
	C355.338806,113.896065 347.973785,124.801239 340.747345,135.797501 
	C333.440765,146.915726 326.109711,158.021942 319.041351,169.291458 
	C312.057861,180.425690 305.304138,191.707001 298.606903,203.016937 
	C291.869263,214.395157 285.325348,225.888092 278.696533,237.330765 
	C279.052429,237.667618 279.408295,238.004486 279.764160,238.341339 
	C280.840332,237.488190 282.183502,236.826340 282.952454,235.753098 
	C293.667267,220.798233 304.747223,206.078903 314.849579,190.717789 
	C328.301727,170.263229 340.978088,149.298477 354.434875,127.952797 
z"/>
<path fill="#040505" opacity="1.000000" stroke="none" 
	d="
M98.124443,109.130318 
	C108.676605,106.093559 119.231339,103.065506 129.760483,99.950974 
	C129.950714,99.894699 129.835144,98.804604 129.827637,98.972694 
	C134.552475,98.313400 139.292206,97.936798 143.905426,96.961639 
	C171.848282,91.054985 199.763351,85.016899 227.685318,79.011604 
	C239.903397,76.383804 252.114532,73.723541 264.334595,71.105049 
	C264.968994,70.969109 265.657867,71.087532 267.800354,71.087532 
	C265.468323,72.496468 264.337677,73.466995 263.027710,73.927818 
	C243.951172,80.638718 224.843399,87.260712 205.758026,93.946617 
	C188.694763,99.924133 171.499756,105.569405 154.666046,112.138237 
	C147.264008,115.026649 140.297195,119.385773 133.732468,123.941338 
	C129.250183,127.051796 129.337845,134.546936 133.812714,138.147125 
	C139.722610,142.901855 146.139023,147.144272 152.746887,150.883896 
	C160.627670,155.343887 168.961288,158.999741 177.047012,163.105804 
	C178.298294,163.741226 179.273361,164.920502 180.376175,165.848251 
	C180.127563,166.172577 179.878952,166.496887 179.630341,166.821198 
	C160.087784,161.846848 140.341537,157.539383 121.076874,151.655243 
	C108.962952,147.955185 96.409851,144.402740 86.276283,135.976303 
	C78.674156,129.654846 79.042091,121.704376 86.737579,115.594971 
	C88.714020,114.025887 90.015755,111.340157 91.069183,108.924026 
	C94.562988,100.910713 97.219322,92.478241 101.287682,84.783257 
	C106.291298,75.319298 115.756447,71.178192 125.595047,69.291451 
	C136.976410,67.108856 148.613861,66.033470 160.191666,65.162025 
	C174.175186,64.109512 188.209900,63.699444 202.228348,63.166222 
	C208.205048,62.938889 214.197433,63.162281 220.181335,63.080158 
	C241.421722,62.788651 262.661469,62.452244 283.901550,62.138382 
	C285.487579,62.114948 287.074280,62.135300 288.916260,63.039249 
	C287.796387,63.591747 286.727051,64.462082 285.549103,64.649414 
	C265.653534,67.813446 245.687790,70.572296 225.854233,74.080338 
	C205.983765,77.594902 186.141418,81.397377 166.473984,85.892845 
	C148.521484,89.996315 130.739304,94.920959 113.055504,100.078461 
	C107.613937,101.665504 102.743149,105.209618 97.139450,108.310699 
	C96.551491,109.115173 96.435081,109.466537 96.318672,109.817902 
	C96.920593,109.588707 97.522514,109.359512 98.124443,109.130318 
M106.083565,127.113991 
	C106.219124,124.124359 106.354691,121.134720 106.481400,118.340462 
	C102.708473,122.706268 102.732658,127.104797 107.152344,130.467468 
	C106.852058,129.336655 106.662971,128.624619 106.083565,127.113991 
M108.276970,130.965530 
	C108.157722,131.418655 108.007317,131.867889 107.949776,132.328720 
	C107.940140,132.405914 108.333122,132.533371 108.540062,132.637619 
	C108.668495,132.246063 108.796928,131.854523 108.276970,130.965530 
z"/>
<path fill="#040404" opacity="1.000000" stroke="none" 
	d="
M91.986145,231.962219 
	C96.935402,230.333191 101.792633,228.297760 106.851372,227.152206 
	C121.363693,223.865891 136.024750,221.223877 150.502548,217.800827 
	C168.744217,213.487900 186.879501,208.718323 205.020218,203.990433 
	C208.889893,202.981903 212.668564,201.487946 216.311371,199.827576 
	C217.416840,199.323715 217.925507,197.510483 218.863342,196.055161 
	C178.449554,205.943634 137.767792,213.355438 96.150833,219.978378 
	C94.897354,220.010223 94.421982,220.022858 93.946609,220.035492 
	C93.946609,220.035492 94.000473,220.002670 94.008667,219.641479 
	C94.000534,216.163101 93.984215,213.045914 93.967896,209.928711 
	C110.402985,205.970444 126.897789,202.242081 143.257446,197.993378 
	C162.024734,193.119370 181.215393,189.395981 198.522888,180.078293 
	C202.338516,178.024109 205.806198,175.196304 209.101349,172.340744 
	C212.020401,169.811111 211.703644,164.974670 209.348984,161.663956 
	C202.242615,151.672211 191.056427,147.935730 180.719589,143.070480 
	C171.447495,138.706406 161.778900,135.184753 151.217239,130.853470 
	C155.698624,130.084335 160.336166,131.001404 164.489014,131.989761 
	C176.458939,134.838547 188.504898,137.366943 200.515701,140.045029 
	C217.468994,143.825150 234.270004,148.139511 248.852905,158.115967 
	C253.542496,161.324188 259.500916,164.626541 257.778717,171.759766 
	C256.795715,175.831223 254.962677,180.678833 251.877884,183.054947 
	C245.664825,187.840622 242.074020,193.760971 240.010635,200.953506 
	C235.140488,217.930130 222.375549,225.058395 206.298355,227.912247 
	C194.270752,230.047241 182.224335,232.121811 170.128937,233.812988 
	C162.327072,234.903854 154.413376,235.171616 146.564194,235.952866 
	C134.005173,237.202881 121.460571,238.597443 108.903412,239.867111 
	C106.921921,240.067474 104.906509,239.932556 102.279526,239.735825 
	C100.765099,239.920090 99.877937,240.321198 98.990768,240.722290 
	C98.548325,240.778625 98.105881,240.834961 97.264229,240.481079 
	C95.251122,238.049423 93.637222,236.027985 92.023331,234.006531 
	C92.023331,234.006531 92.062218,233.514999 92.030647,233.004837 
	C91.994759,232.317184 91.990448,232.139694 91.986145,231.962219 
z"/>
<path fill="#020202" opacity="1.000000" stroke="none" 
	d="
M896.996216,168.998413 
	C896.996216,153.195023 896.996216,137.891403 896.996216,122.050407 
	C909.197632,122.050407 921.152222,121.621201 933.057312,122.203773 
	C940.782654,122.581818 948.606689,123.801132 956.072510,125.810295 
	C963.304810,127.756584 966.301086,134.026154 966.910767,141.113083 
	C967.592102,149.033035 963.906433,154.893631 957.216370,158.917450 
	C955.568604,159.908524 953.733215,160.587616 951.579529,161.600403 
	C956.712524,168.137146 961.712891,174.505035 967.100220,181.365753 
	C968.400574,179.628418 969.914673,178.011414 970.962952,176.134323 
	C975.378540,168.227036 980.040710,160.423050 983.881592,152.238190 
	C988.335449,142.747192 994.477295,134.217377 998.882568,124.715172 
	C999.455444,123.479515 1001.436584,122.242409 1002.833435,122.160141 
	C1007.977234,121.857185 1013.149658,122.039871 1018.379761,122.039871 
	C1029.912476,143.223526 1041.401855,164.327515 1053.171021,185.945389 
	C1047.582153,185.945389 1042.412476,186.394760 1037.393799,185.720230 
	C1035.435547,185.457031 1032.890381,182.980362 1032.207031,180.969864 
	C1029.495483,172.993027 1023.908752,171.295212 1016.292542,171.834991 
	C1009.163269,172.340271 1001.963074,172.130005 994.808533,171.856384 
	C991.819519,171.742081 989.869080,172.733948 989.219910,175.387466 
	C986.915405,184.807526 980.848633,187.289825 971.809265,186.091110 
	C966.241699,185.352783 960.482666,186.178894 954.838745,185.831100 
	C952.810730,185.706131 950.260193,184.717651 948.996338,183.231735 
	C944.650452,178.122330 940.887878,172.521271 936.652405,167.311249 
	C934.869751,165.118484 933.537292,163.421478 929.194824,164.985764 
	C924.894775,166.534744 919.117981,163.983856 913.364136,163.139603 
	C913.364136,171.099411 913.364136,178.200470 913.364136,185.627869 
	C907.773621,185.627869 902.706116,185.627869 896.996216,185.627869 
	C896.996216,180.351593 896.996216,174.924896 896.996216,168.998413 
M948.879883,146.627060 
	C948.241089,143.441696 951.601318,138.313828 945.627563,137.660217 
	C934.845276,136.480438 923.984924,136.013596 913.452515,135.269867 
	C913.452515,141.440857 913.452515,146.208603 913.452515,151.022888 
	C921.402222,151.022888 928.929138,151.450912 936.373535,150.852051 
	C940.423523,150.526230 944.333130,148.456024 948.879883,146.627060 
M1016.980225,151.590179 
	C1014.493164,146.781784 1012.006042,141.973373 1009.312866,136.766571 
	C1005.362427,144.136765 1001.585205,151.183899 997.554993,158.702972 
	C1005.555969,158.702972 1013.048889,158.702972 1020.661377,158.702972 
	C1019.422363,156.504456 1018.251221,154.426331 1016.980225,151.590179 
z"/>
<path fill="#020303" opacity="1.000000" stroke="none" 
	d="
M772.000122,122.045052 
	C782.410034,122.371582 792.383240,122.112961 802.213379,123.176880 
	C813.732788,124.423637 820.106140,130.367249 821.855408,141.993179 
	C822.851501,148.612823 816.490234,157.258301 809.216003,159.996201 
	C808.626465,160.218109 808.064880,160.514145 806.814331,161.083405 
	C813.214355,169.165115 819.405151,176.982620 826.504944,185.947983 
	C819.237061,185.947983 813.649658,186.142288 808.092346,185.819641 
	C806.590088,185.732422 804.808533,184.373535 803.791687,183.092941 
	C799.961121,178.268692 796.453857,173.189468 792.703308,168.299438 
	C790.559631,165.504440 788.187683,163.437714 784.023865,163.831543 
	C778.785889,164.326950 773.465393,163.950928 767.962830,163.950928 
	C767.962830,170.403641 767.867981,176.391449 768.003113,182.374069 
	C768.069702,185.325409 766.679871,186.063797 764.048950,185.985779 
	C759.911255,185.863113 755.767212,185.953186 751.320923,185.953186 
	C751.320923,164.713943 751.320923,143.671997 751.320923,122.044937 
	C757.986328,122.044937 764.743225,122.044937 772.000122,122.045052 
M775.653625,135.952179 
	C773.324890,135.952179 770.996155,135.952179 767.842285,135.952179 
	C768.267883,141.090088 768.679749,146.062958 769.089661,151.011597 
	C777.450317,151.011597 785.107910,151.060211 792.763733,150.967621 
	C794.171753,150.950592 795.561951,150.299377 796.979309,150.047470 
	C800.945862,149.342484 804.134949,147.130341 803.783630,143.092285 
	C803.405701,138.747910 801.341370,135.966125 795.590210,135.965271 
	C789.264465,135.964310 782.938660,135.956848 775.653625,135.952179 
z"/>
<path fill="#020303" opacity="1.000000" stroke="none" 
	d="
M639.459473,122.452469 
	C644.958130,122.118645 650.113770,122.118645 655.650452,122.118645 
	C655.753174,123.383026 655.943176,124.640671 655.944458,125.898514 
	C655.963440,144.219986 655.854553,162.542526 656.039368,180.862137 
	C656.078674,184.749863 655.007874,185.786606 651.032715,186.125336 
	C643.672424,186.752548 638.340637,184.624084 633.306030,178.993591 
	C623.248901,167.746201 612.415039,157.193802 601.922668,146.334351 
	C600.934631,145.311752 600.094055,144.146637 598.115051,141.754044 
	C598.115051,151.163986 598.017029,159.299973 598.151550,167.432114 
	C598.233032,172.354630 599.158569,177.302582 598.841553,182.183029 
	C598.364075,189.534210 592.458374,185.080627 589.149658,185.723083 
	C586.675842,186.203400 581.968445,188.094116 582.022766,182.072113 
	C582.109924,172.412506 582.037231,162.751480 582.035889,153.091064 
	C582.034607,144.096878 582.122375,135.101471 581.992310,126.109184 
	C581.949097,123.125931 582.905457,121.696510 586.005432,122.025261 
	C586.993591,122.130058 588.055481,122.248909 588.993530,122.009041 
	C598.907837,119.473793 604.051331,126.368706 609.723267,132.338745 
	C619.170959,142.283020 628.683350,152.165817 639.116516,163.064850 
	C639.116516,148.637436 639.116516,135.711868 639.459473,122.452469 
z"/>
<path fill="#020202" opacity="1.000000" stroke="none" 
	d="
M497.955139,130.049347 
	C504.848907,126.069069 512.036194,122.313972 520.171631,121.478943 
	C537.748718,119.674797 554.288269,121.565811 566.728699,136.266251 
	C574.861023,145.875854 574.406738,163.398254 565.901123,172.608063 
	C557.968140,181.197922 548.542053,185.827911 536.641724,186.140717 
	C527.345337,186.385056 518.421021,185.990005 509.388214,183.173492 
	C487.494110,176.346741 481.360077,148.965805 494.997681,134.374939 
	C496.125488,133.168274 496.475494,131.235825 497.197601,129.645462 
	C497.235748,129.561478 497.388733,129.460098 497.463715,129.476791 
	C497.620270,129.511658 497.760437,129.620148 497.955139,130.049347 
M553.637207,161.967148 
	C557.578186,154.905502 554.987915,143.839508 548.387512,140.097885 
	C547.525391,139.609161 545.966492,140.338715 545.116089,139.842606 
	C543.510071,138.905762 542.356262,136.786560 540.714539,136.385025 
	C530.840698,133.970093 521.165100,134.019104 511.993225,139.381195 
	C502.134399,145.144928 502.185455,162.106033 510.867279,167.917343 
	C520.406921,174.302826 530.958801,174.297333 541.652283,171.085999 
	C546.483276,169.635193 551.217224,167.985779 553.637207,161.967148 
z"/>
<path fill="#030303" opacity="1.000000" stroke="none" 
	d="
M460.450195,171.857452 
	C462.384094,170.250931 463.928986,168.781143 465.494354,167.291885 
	C460.544464,160.303467 453.194916,161.534775 446.929657,160.037018 
	C437.822266,157.859818 428.523590,156.391586 419.555145,153.770264 
	C416.066467,152.750580 411.751465,150.056198 410.453705,147.002380 
	C407.939301,141.085663 412.063293,131.621017 416.678650,128.042252 
	C423.221863,122.968643 430.926788,121.430893 438.733582,121.225861 
	C446.847656,121.012764 455.193878,121.138687 463.059509,122.854347 
	C468.624939,124.068291 473.591766,128.119217 478.717712,131.090210 
	C479.156342,131.344437 479.191254,133.308823 478.710571,133.958664 
	C476.706787,136.667603 474.433990,139.177551 471.968781,142.106323 
	C468.394318,140.569550 464.670044,138.665192 460.749298,137.343811 
	C451.681519,134.287735 442.337891,132.969574 432.917297,135.212860 
	C430.998962,135.669678 429.587433,138.255020 427.942291,139.859161 
	C429.638611,141.249130 431.160095,143.502502 433.059967,143.887253 
	C444.350616,146.173691 455.872803,147.444962 467.034393,150.202057 
	C476.856384,152.628235 484.470398,159.234146 481.847748,170.322159 
	C479.868073,178.691589 473.038239,182.894440 465.424408,184.592026 
	C451.232452,187.756256 436.898132,187.735443 422.815460,183.324158 
	C416.291901,181.280701 410.502350,178.104385 407.849060,174.618973 
	C409.846527,171.603821 411.585175,168.815933 413.493500,166.149475 
	C415.076538,163.937500 416.471893,163.723618 419.167145,165.501785 
	C431.725067,173.786728 445.699219,174.396378 460.450195,171.857452 
z"/>
<path fill="#020202" opacity="1.000000" stroke="none" 
	d="
M668.050964,185.953537 
	C665.145996,185.953644 662.711609,185.953644 659.528809,185.953644 
	C664.006165,177.672455 668.096497,170.018875 672.269226,162.410431 
	C678.102783,151.773621 683.999634,141.171478 689.860168,130.549393 
	C690.092651,130.127930 690.231201,129.654434 690.411499,129.204376 
	C692.532166,123.913239 695.854858,121.939079 702.093384,121.683746 
	C710.597900,121.335678 714.492126,124.383591 718.217651,131.807770 
	C726.967651,149.244476 737.013916,166.030289 746.498596,183.100098 
	C746.864563,183.758652 746.848450,184.629471 747.126709,185.955505 
	C741.544922,185.955505 736.276978,186.163757 731.046021,185.816376 
	C729.651062,185.723724 727.925659,184.197632 727.121521,182.865158 
	C725.039917,179.415863 723.387329,175.707642 721.487122,171.951981 
	C710.347046,171.951981 699.195496,171.882553 688.047546,172.048798 
	C686.797729,172.067459 685.443909,173.278595 684.373474,174.207703 
	C683.693420,174.797974 683.297974,175.845596 683.031555,176.762680 
	C680.893555,184.120941 676.360291,187.628174 668.050964,185.953537 
M696.465393,149.990372 
	C695.042542,152.854172 693.619629,155.717972 691.479492,160.025497 
	C693.524353,158.680084 694.404541,158.100983 695.068359,157.664246 
	C696.182495,158.067322 697.496155,158.896927 698.847656,158.964005 
	C702.649719,159.152756 706.467712,159.055908 710.278870,159.017578 
	C713.426453,158.985916 714.063721,156.995941 712.936340,154.667435 
	C710.181702,148.977951 707.125183,143.434586 703.739929,136.972946 
	C701.208862,141.591202 699.071594,145.491028 696.465393,149.990372 
z"/>
<path fill="#020202" opacity="1.000000" stroke="none" 
	d="
M878.990295,135.975311 
	C874.189392,135.975235 869.883484,135.975235 865.178833,135.975235 
	C865.178833,152.576630 865.178833,168.967300 865.178833,185.655258 
	C859.717529,185.655258 854.649536,185.655258 848.949097,185.655258 
	C848.949097,169.236130 848.949097,152.746338 848.949097,136.072021 
	C841.286133,136.072021 834.021606,136.072021 826.394775,136.072021 
	C826.394775,131.501724 826.394775,127.104866 826.394775,122.372475 
	C847.545166,122.372475 868.922180,122.372475 890.629150,122.372475 
	C890.629150,126.583969 890.629150,130.977112 890.629150,135.975372 
	C887.011414,135.975372 883.248413,135.975372 878.990295,135.975311 
z"/>
<path fill="#090909" opacity="1.000000" stroke="none" 
	d="
M354.211304,128.252838 
	C340.978088,149.298477 328.301727,170.263229 314.849579,190.717789 
	C304.747223,206.078903 293.667267,220.798233 282.952454,235.753098 
	C282.183502,236.826340 280.840332,237.488190 279.764160,238.341339 
	C279.408295,238.004486 279.052429,237.667618 278.696533,237.330765 
	C285.325348,225.888092 291.869263,214.395157 298.606903,203.016937 
	C305.304138,191.707001 312.057861,180.425690 319.041351,169.291458 
	C326.109711,158.021942 333.440765,146.915726 340.747345,135.797501 
	C347.973785,124.801239 355.338806,113.896065 362.565094,102.899712 
	C363.311493,101.763893 382.894043,74.581184 385.045563,73.469421 
	C377.164795,92.902878 364.455444,109.691437 354.211304,128.252838 
z"/>
<path fill="#0A0B0B" opacity="1.000000" stroke="none" 
	d="
M91.564171,232.001099 
	C91.990448,232.139694 91.994759,232.317184 91.994598,232.760956 
	C90.367340,233.027237 88.744553,233.027237 86.552246,233.027237 
	C87.236565,234.730652 88.426735,236.237305 88.069038,237.108185 
	C87.341019,238.880661 87.509071,241.379929 83.795944,241.228714 
	C78.691078,241.020828 73.537666,242.478546 68.378448,242.816574 
	C66.994743,242.907211 65.514427,241.523163 64.312866,240.183746 
	C64.711395,237.780060 64.875511,236.008743 65.039635,234.237411 
	C71.207298,233.187744 77.350533,231.935013 83.554718,231.189041 
	C86.014214,230.893311 88.609001,231.722778 91.564171,232.001099 
z"/>
<path fill="#131414" opacity="1.000000" stroke="none" 
	d="
M76.005585,219.984482 
	C72.047829,219.957794 72.506935,224.270844 70.838448,225.451080 
	C66.089783,225.451080 61.966335,225.451080 57.663750,225.451080 
	C53.948940,216.780853 55.262928,215.270386 67.709824,214.901855 
	C67.902359,213.792435 68.106895,212.613815 68.301895,211.490204 
	C70.959045,212.011597 73.334274,212.467575 72.159828,216.297440 
	C71.812759,217.429214 72.521645,220.040497 75.649803,219.272003 
	C76.038437,219.499588 76.005585,219.984482 76.005585,219.984482 
z"/>
<path fill="#050605" opacity="1.000000" stroke="none" 
	d="
M76.039825,220.320587 
	C76.005585,219.984482 76.038437,219.499588 76.021889,219.257172 
	C76.026299,217.613785 76.047249,216.212845 76.338234,214.340866 
	C76.827179,213.722519 76.956627,213.518417 76.996613,213.257568 
	C81.218010,212.264023 85.439407,211.270462 89.818466,211.052200 
	C90.312813,214.904312 90.649498,217.981155 90.986191,221.057983 
	C86.956642,221.696228 82.927094,222.334488 78.208313,222.983643 
	C77.338882,222.999191 77.158676,223.003830 76.978477,223.008469 
	C76.978477,223.008469 76.489288,222.911270 76.257660,222.643250 
	C76.026024,222.375214 76.001633,222.004211 76.001633,222.004211 
	C76.025772,221.555038 76.049919,221.105865 76.039825,220.320587 
z"/>
<path fill="#171818" opacity="1.000000" stroke="none" 
	d="
M43.980103,237.214600 
	C49.534775,236.224304 55.089447,235.234009 60.846687,234.947311 
	C61.724335,237.109085 62.399410,238.567261 63.074486,240.025452 
	C61.669083,242.941605 54.401226,245.965424 50.393135,244.742996 
	C49.054825,244.334824 48.264351,242.130432 47.242729,240.772766 
	C46.975864,241.113480 46.325813,241.943405 45.325871,242.531555 
	C44.644020,240.598038 44.312061,238.906326 43.980103,237.214600 
z"/>
<path fill="#030403" opacity="1.000000" stroke="none" 
	d="
M43.538265,237.124557 
	C44.312061,238.906326 44.644020,240.598038 44.995506,242.663956 
	C44.977268,243.202682 44.939503,243.367203 44.635551,243.811279 
	C44.150581,244.221741 44.028053,244.413986 44.001781,244.667603 
	C40.298481,245.059555 36.595181,245.451508 32.474228,245.417191 
	C31.714693,243.996933 31.372808,243.002960 31.030926,242.008972 
	C30.727430,238.538010 33.145504,237.576477 35.796417,237.228577 
	C38.196896,236.913513 40.660599,237.080215 43.538265,237.124557 
z"/>
<path fill="#212222" opacity="1.000000" stroke="none" 
	d="
M91.065659,221.340057 
	C90.649498,217.981155 90.312813,214.904312 89.998001,211.390411 
	C91.100914,210.631912 92.181946,210.310471 93.615440,209.958862 
	C93.984215,213.045914 94.000534,216.163101 93.991142,219.667740 
	C93.025330,220.577484 92.085228,221.099808 91.065659,221.340057 
z"/>
<path fill="#0A0B0B" opacity="1.000000" stroke="none" 
	d="
M91.697083,234.134003 
	C93.637222,236.027985 95.251122,238.049423 96.937012,240.399643 
	C94.750587,240.728424 92.492165,240.728424 91.080696,240.728424 
	C91.190666,238.277237 91.280754,236.269348 91.697083,234.134003 
z"/>
<path fill="#2A2B2B" opacity="1.000000" stroke="none" 
	d="
M63.294678,240.017029 
	C62.399410,238.567261 61.724335,237.109085 61.049469,235.268097 
	C62.143406,234.652649 63.237133,234.420013 64.685242,234.212402 
	C64.875511,236.008743 64.711395,237.780060 64.251389,239.783508 
	C63.955509,240.015640 63.514866,240.008621 63.294678,240.017029 
z"/>
<path fill="#171818" opacity="1.000000" stroke="none" 
	d="
M30.699081,242.160767 
	C31.372808,243.002960 31.714693,243.996933 32.045109,245.328827 
	C31.478172,244.548691 30.922707,243.430634 30.699081,242.160767 
z"/>
<path fill="#0A0B0B" opacity="1.000000" stroke="none" 
	d="
M99.329453,240.814819 
	C99.877937,240.321198 100.765099,239.920090 101.831573,239.773483 
	C101.229965,240.321091 100.449043,240.614212 99.329453,240.814819 
z"/>
<path fill="#212222" opacity="1.000000" stroke="none" 
	d="
M93.972733,220.385284 
	C94.421982,220.022858 94.897354,220.010223 95.728951,220.017761 
	C96.168152,220.661453 96.251137,221.285004 96.334122,221.908539 
	C95.555695,221.517380 94.777267,221.126221 93.972733,220.385284 
z"/>
<path fill="#131414" opacity="1.000000" stroke="none" 
	d="
M77.038116,223.269012 
	C77.158676,223.003830 77.338882,222.999191 77.789116,223.009338 
	C77.738678,223.192612 77.418221,223.361069 77.038116,223.269012 
z"/>
<path fill="#131414" opacity="1.000000" stroke="none" 
	d="
M75.737320,222.052551 
	C76.001633,222.004211 76.026024,222.375214 76.022194,222.561081 
	C75.836578,222.531601 75.654793,222.316254 75.737320,222.052551 
z"/>
<path fill="#131414" opacity="1.000000" stroke="none" 
	d="
M76.748466,213.196213 
	C76.956627,213.518417 76.827179,213.722519 76.433067,213.931107 
	C76.338692,213.706528 76.419510,213.420700 76.748466,213.196213 
z"/>
<path fill="#171818" opacity="1.000000" stroke="none" 
	d="
M44.240685,244.756226 
	C44.028053,244.413986 44.150581,244.221741 44.539604,244.045593 
	C44.633091,244.281845 44.556335,244.563339 44.240685,244.756226 
z"/>
<path fill="#FFFFFF" opacity="1.000000" stroke="none" 
	d="
M106.278732,127.513283 
	C106.662971,128.624619 106.852058,129.336655 107.152344,130.467468 
	C102.732658,127.104797 102.708473,122.706268 106.481400,118.340462 
	C106.354691,121.134720 106.219124,124.124359 106.278732,127.513283 
z"/>
<path fill="#FFFFFF" opacity="1.000000" stroke="none" 
	d="
M108.601166,131.214249 
	C108.796928,131.854523 108.668495,132.246063 108.540062,132.637619 
	C108.333122,132.533371 107.940140,132.405914 107.949776,132.328720 
	C108.007317,131.867889 108.157722,131.418655 108.601166,131.214249 
z"/>
<path fill="#FFFFFF" opacity="1.000000" stroke="none" 
	d="
M97.891212,108.939651 
	C97.522514,109.359512 96.920593,109.588707 96.318672,109.817902 
	C96.435081,109.466537 96.551491,109.115173 96.913315,108.587753 
	C97.325150,108.524132 97.491562,108.636559 97.891212,108.939651 
z"/>
<path fill="#FFFFFF" opacity="1.000000" stroke="none" 
	d="
M948.593018,146.899841 
	C944.333130,148.456024 940.423523,150.526230 936.373535,150.852051 
	C928.929138,151.450912 921.402222,151.022888 913.452515,151.022888 
	C913.452515,146.208603 913.452515,141.440857 913.452515,135.269867 
	C923.984924,136.013596 934.845276,136.480438 945.627563,137.660217 
	C951.601318,138.313828 948.241089,143.441696 948.593018,146.899841 
z"/>
<path fill="#FFFFFF" opacity="1.000000" stroke="none" 
	d="
M1017.030151,151.969208 
	C1018.251221,154.426331 1019.422363,156.504456 1020.661377,158.702972 
	C1013.048889,158.702972 1005.555969,158.702972 997.554993,158.702972 
	C1001.585205,151.183899 1005.362427,144.136765 1009.312866,136.766571 
	C1012.006042,141.973373 1014.493164,146.781784 1017.030151,151.969208 
z"/>
<path fill="#FFFFFF" opacity="1.000000" stroke="none" 
	d="
M776.133301,135.952209 
	C782.938660,135.956848 789.264465,135.964310 795.590210,135.965271 
	C801.341370,135.966125 803.405701,138.747910 803.783630,143.092285 
	C804.134949,147.130341 800.945862,149.342484 796.979309,150.047470 
	C795.561951,150.299377 794.171753,150.950592 792.763733,150.967621 
	C785.107910,151.060211 777.450317,151.011597 769.089661,151.011597 
	C768.679749,146.062958 768.267883,141.090088 767.842285,135.952179 
	C770.996155,135.952179 773.324890,135.952179 776.133301,135.952209 
z"/>
<path fill="#FFFFFF" opacity="1.000000" stroke="none" 
	d="
M553.369263,162.258881 
	C551.217224,167.985779 546.483276,169.635193 541.652283,171.085999 
	C530.958801,174.297333 520.406921,174.302826 510.867279,167.917343 
	C502.185455,162.106033 502.134399,145.144928 511.993225,139.381195 
	C521.165100,134.019104 530.840698,133.970093 540.714539,136.385025 
	C542.356262,136.786560 543.510071,138.905762 545.116089,139.842606 
	C545.966492,140.338715 547.525391,139.609161 548.387512,140.097885 
	C554.987915,143.839508 557.578186,154.905502 553.369263,162.258881 
z"/>
<path fill="#FFFFFF" opacity="1.000000" stroke="none" 
	d="
M696.699829,149.690613 
	C699.071594,145.491028 701.208862,141.591202 703.739929,136.972946 
	C707.125183,143.434586 710.181702,148.977951 712.936340,154.667435 
	C714.063721,156.995941 713.426453,158.985916 710.278870,159.017578 
	C706.467712,159.055908 702.649719,159.152756 698.847656,158.964005 
	C697.496155,158.896927 696.182495,158.067322 695.068359,157.664246 
	C694.404541,158.100983 693.524353,158.680084 691.479492,160.025497 
	C693.619629,155.717972 695.042542,152.854172 696.699829,149.690613 
z"/>
</svg>